<svg width="21" height="18" viewBox="0 0 21 18" fill="none" xmlns="http://www.w3.org/2000/svg">
<path opacity="0.4" d="M20.4999 12.9402C20.4999 15.7302 18.2599 17.9902 15.4699 18.0002H15.4599H5.54989C2.76989 18.0002 0.499893 15.7502 0.499893 12.9602V12.9502C0.499893 12.9502 0.505893 8.5242 0.513893 6.2982C0.514893 5.8802 0.994893 5.6462 1.32189 5.9062C3.69789 7.7912 7.94689 11.2282 7.99989 11.2732C8.70989 11.8422 9.60989 12.1632 10.5299 12.1632C11.4499 12.1632 12.3499 11.8422 13.0599 11.2622C13.1129 11.2272 17.2669 7.8932 19.6789 5.9772C20.0069 5.7162 20.4889 5.9502 20.4899 6.3672C20.4999 8.5762 20.4999 12.9402 20.4999 12.9402Z" fill="#F67952"/>
<path d="M19.976 2.6736C19.11 1.0416 17.406 -0.000396729 15.53 -0.000396729H5.55001C3.67401 -0.000396729 1.97001 1.0416 1.10401 2.6736C0.910006 3.0386 1.00201 3.4936 1.32501 3.7516L8.75001 9.6906C9.27001 10.1106 9.90001 10.3196 10.53 10.3196C10.534 10.3196 10.537 10.3196 10.54 10.3196C10.543 10.3196 10.547 10.3196 10.55 10.3196C11.18 10.3196 11.81 10.1106 12.33 9.6906L19.755 3.7516C20.078 3.4936 20.17 3.0386 19.976 2.6736Z" fill="#F67952"/>
</svg>
