<svg width="17" height="20" viewBox="0 0 17 20" fill="none" xmlns="http://www.w3.org/2000/svg">
<path fill-rule="evenodd" clip-rule="evenodd" d="M4.2688 6.71384H12.7312C15.0886 6.71384 17 8.58304 17 10.8885V15.8253C17 18.1308 15.0886 20 12.7312 20H4.2688C1.91136 20 0 18.1308 0 15.8253V10.8885C0 8.58304 1.91136 6.71384 4.2688 6.71384ZM8.49492 15.3295C8.99283 15.3295 9.38912 14.9419 9.38912 14.455V12.2489C9.38912 11.7719 8.99283 11.3844 8.49492 11.3844C8.00717 11.3844 7.61088 11.7719 7.61088 12.2489V14.455C7.61088 14.9419 8.00717 15.3295 8.49492 15.3295Z" fill="#F67952"/>
<path opacity="0.4" d="M14.0228 5.39595V6.86667C13.6672 6.7673 13.2912 6.71761 12.9051 6.71761H12.2446V5.39595C12.2446 3.37868 10.5679 1.73903 8.50518 1.73903C6.44242 1.73903 4.76579 3.36874 4.75563 5.37608V6.71761H4.1053C3.70901 6.71761 3.33304 6.7673 2.97739 6.87661V5.39595C2.98755 2.41476 5.45676 0 8.48486 0C11.5536 0 14.0228 2.41476 14.0228 5.39595Z" fill="#F67952"/>
</svg>
