<svg width="102" height="102" viewBox="0 0 102 102" fill="none" xmlns="http://www.w3.org/2000/svg">
<g filter="url(#filter0_d_1_101)">
<circle cx="45.9955" cy="47.3488" r="35.4384" fill="white"/>
</g>
<path d="M45.9956 31.5155C37.2146 31.5155 30.0961 38.6341 30.0961 47.415C30.0961 55.2905 35.8282 61.8128 43.3439 63.0758V50.7321H39.5084V46.2901H43.3439V43.0148C43.3439 39.2144 45.665 37.1435 49.0557 37.1435C50.6796 37.1435 52.0751 37.2645 52.4803 37.3178V41.2901L50.1286 41.2913C48.285 41.2913 47.9296 42.1672 47.9296 43.4529V46.2878H52.3285L51.7548 50.7298H47.9296V63.182C55.7962 62.2245 61.8949 55.5361 61.8949 47.4105C61.8949 38.6341 54.7764 31.5155 45.9956 31.5155Z" fill="#076FE5"/>
<defs>
<filter id="filter0_d_1_101" x="0.557129" y="0.9104" width="100.877" height="100.877" filterUnits="userSpaceOnUse" color-interpolation-filters="sRGB">
<feFlood flood-opacity="0" result="BackgroundImageFix"/>
<feColorMatrix in="SourceAlpha" type="matrix" values="0 0 0 0 0 0 0 0 0 0 0 0 0 0 0 0 0 0 127 0" result="hardAlpha"/>
<feOffset dx="5" dy="4"/>
<feGaussianBlur stdDeviation="7.5"/>
<feColorMatrix type="matrix" values="0 0 0 0 0.2 0 0 0 0 0.2 0 0 0 0 0.2 0 0 0 0.05 0"/>
<feBlend mode="normal" in2="BackgroundImageFix" result="effect1_dropShadow_1_101"/>
<feBlend mode="normal" in="SourceGraphic" in2="effect1_dropShadow_1_101" result="shape"/>
</filter>
</defs>
</svg>
