<svg width="101" height="102" viewBox="0 0 101 102" fill="none" xmlns="http://www.w3.org/2000/svg">
<g filter="url(#filter0_d_1_105)">
<circle cx="45.5282" cy="47.3488" r="35.4384" fill="white"/>
</g>
<g clip-path="url(#clip0_1_105)">
<path d="M59.8579 44.6538L47.2133 44.6532C46.6549 44.6532 46.2023 45.1057 46.2023 45.6641V49.7035C46.2023 50.2617 46.6549 50.7144 47.2132 50.7144H54.3339C53.5542 52.7379 52.0989 54.4325 50.2422 55.5093L53.2784 60.7653C58.1489 57.9485 61.0284 53.0061 61.0284 47.4735C61.0284 46.6857 60.9703 46.1225 60.8542 45.4884C60.7659 45.0067 60.3477 44.6538 59.8579 44.6538Z" fill="#167EE6"/>
<path d="M45.528 56.7833C42.0433 56.7833 39.0012 54.8794 37.3673 52.062L32.1115 55.0914C34.7862 59.727 39.7967 62.8486 45.528 62.8486C48.3396 62.8486 50.9926 62.0916 53.278 60.7723V60.7651L50.2418 55.509C48.853 56.3145 47.2458 56.7833 45.528 56.7833Z" fill="#12B347"/>
<path d="M53.2782 60.7725V60.7653L50.242 55.5092C48.8531 56.3147 47.2461 56.7836 45.5282 56.7836V62.8488C48.3398 62.8488 50.9929 62.0918 53.2782 60.7725Z" fill="#0F993E"/>
<path d="M36.0934 47.3486C36.0934 45.6309 36.5622 44.024 37.3675 42.6352L32.1117 39.6058C30.7852 41.884 30.0282 44.5298 30.0282 47.3486C30.0282 50.1674 30.7852 52.8132 32.1117 55.0914L37.3675 52.062C36.5622 50.6732 36.0934 49.0662 36.0934 47.3486Z" fill="#FFD500"/>
<path d="M45.528 37.914C47.8004 37.914 49.8877 38.7214 51.5181 40.0645C51.9203 40.3959 52.5049 40.3719 52.8733 40.0035L55.7353 37.1415C56.1533 36.7234 56.1236 36.0392 55.677 35.6518C52.9454 33.2821 49.3913 31.8488 45.528 31.8488C39.7967 31.8488 34.7862 34.9704 32.1115 39.606L37.3673 42.6354C39.0012 39.8179 42.0433 37.914 45.528 37.914Z" fill="#FF4B26"/>
<path d="M51.5182 40.0645C51.9204 40.3959 52.5051 40.3719 52.8735 40.0035L55.7355 37.1415C56.1535 36.7234 56.1237 36.0392 55.6772 35.6518C52.9456 33.282 49.3915 31.8488 45.5282 31.8488V37.914C47.8005 37.914 49.8879 38.7214 51.5182 40.0645Z" fill="#D93F21"/>
</g>
<defs>
<filter id="filter0_d_1_105" x="0.0898438" y="0.9104" width="100.877" height="100.877" filterUnits="userSpaceOnUse" color-interpolation-filters="sRGB">
<feFlood flood-opacity="0" result="BackgroundImageFix"/>
<feColorMatrix in="SourceAlpha" type="matrix" values="0 0 0 0 0 0 0 0 0 0 0 0 0 0 0 0 0 0 127 0" result="hardAlpha"/>
<feOffset dx="5" dy="4"/>
<feGaussianBlur stdDeviation="7.5"/>
<feColorMatrix type="matrix" values="0 0 0 0 0.2 0 0 0 0 0.2 0 0 0 0 0.2 0 0 0 0.05 0"/>
<feBlend mode="normal" in2="BackgroundImageFix" result="effect1_dropShadow_1_105"/>
<feBlend mode="normal" in="SourceGraphic" in2="effect1_dropShadow_1_105" result="shape"/>
</filter>
<clipPath id="clip0_1_105">
<rect width="31" height="31" fill="white" transform="translate(30.0282 31.8488)"/>
</clipPath>
</defs>
</svg>
